PathFileType	3	(X/Y/Z)	D:\minhoCalibration\240510\subject3_KPNP\preferred\preferred15.trc
DataRate	CameraRate	NumFrames	NumMarkers	Units	OrigDataRate	OrigDataStartFrame	OrigNumFrames
200.0	200.0	12	10	mm	200.0	263	140	
Frame#	Time	Left_Ankle_Outer1			Left_Ankle_Inner1			Left_Knee_Outer1			Left_Knee_Inner1			Left_Wrist1			Right_Wrist1			Right_Knee_Inner1			Right_Knee_Outer1			Right_Ankle_Inner1			Right_Ankle_Outer1			
		X1	Y1	Z1	X2	Y2	Z2	X3	Y3	Z3	X4	Y4	Z4	X5	Y5	Z5	X6	Y6	Z6	X7	Y7	Z7	X8	Y8	Z8	X9	Y9	Z9	X10	Y10	Z10	
263	1.305	-309.24136	101.2248	-526.69537	-364.34378	118.75087	-527.70599	-211.60706	526.72321	-417.802	-306.34152	530.47675	-384.38397	-143.90752	924.30206	-568.12872	-484.85257	1052.5679	-469.19412	-348.93341	925.49023	-96.758743	-452.974	973.44794	-114.6983	-434.88394	696.12512	251.76585	-531.80457	730.98071	240.62334
264	1.31	-308.87411	99.13121	-527.7782	-363.99115	116.55762	-529.44177	-212.63518	524.78137	-419.2782	-308.19818	528.39307	-387.74683	-143.04893	923.67212	-566.88513	-485.5531	1047.2062	-471.05392	-351.61063	918.2677	-97.691505	-456.24191	965.93207	-116.64381	-445.99741	672.6944	240.21794	-541.57324	706.7016	226.4872
265	1.315	-308.81479	97.099075	-528.79773	-363.89972	114.23425	-531.03119	-213.74728	522.89893	-420.77252	-310.15436	526.21259	-391.01822	-142.1487	922.84802	-565.77502	-486.0144	1042.3922	-473.17673	-354.51892	910.59583	-98.669044	-459.78821	958.02258	-118.63815	-454.00671	649.04089	224.63795	-550.32648	682.09558	210.90717
266	1.32	-308.77856	95.305305	-529.94513	-364.19308	112.21449	-532.52533	-214.72818	521.04651	-422.31995	-311.86334	524.11884	-394.47238	-141.55533	921.70618	-564.70361	-486.41953	1038.0906	-475.55148	-357.51733	902.26166	-99.733269	-462.80081	949.59088	-121.05596	-463.59427	625.08063	209.78133	-559.22217	657.88422	194.35269
267	1.325	-309.45834	93.510521	-530.71509	-364.62674	110.18907	-533.75574	-216.17944	518.9278	-423.83356	-313.65146	522.05969	-397.69736	-140.54608	920.51807	-563.82959	-486.76059	1033.7939	-477.8927	-360.64948	893.20099	-100.92293	-466.40411	941.06732	-123.35176	-472.99442	601.82141	193.1485	-569.7251	634.21021	177.1033
268	1.33	-310.21771	92.032677	-531.5636	-365.46167	108.44339	-535.02222	-217.16719	517.09247	-425.02448	-315.42859	520.24908	-400.8179	-140.06017	919.04871	-562.87305	-487.45691	1030.0114	-480.33218	-363.8811	883.55554	-102.24418	-469.2439	931.88837	-126.17408	-484.59094	579.03217	177.0097	-577.68512	610.54535	157.93811
269	1.335	-311.28647	90.807274	-532.39264	-366.68549	106.71792	-535.96014	-218.49034	515.20081	-426.21155	-317.00955	518.69513	-403.66037	-139.69225	917.349	-561.86481	-488.36288	1026.386	-482.59299	-367.26581	873.20569	-103.89109	-472.12219	922.80646	-128.78831	-494.0488	555.29059	159.03676	-586.21216	587.49396	137.97382
270	1.34	-313.21613	89.044495	-532.7439	-368.03595	105.15581	-536.83887	-219.78598	513.71313	-427.38141	-319.01208	516.96753	-406.22632	-139.07315	915.92078	-561.1759	-489.22546	1023.009	-484.77185	-370.71158	862.32642	-105.68811	-475.21805	913.33087	-131.2272	-500.20557	533.14673	137.32809	-594.59912	565.75122	117.58916
271	1.345	-314.33606	87.985008	-533.69147	-369.60281	103.60852	-537.68817	-221.22334	512.34692	-428.41418	-320.29105	515.89447	-408.89587	-138.6151	914.18079	-560.28204	-490.09805	1019.8189	-487.08353	-374.22272	851.04181	-107.88934	-477.76028	903.12115	-133.9158	-508.22949	510.79153	116.03448	-602.21625	543.84564	95.806053
272	1.35	-316.17615	86.755997	-534.32605	-371.38922	102.17523	-538.28906	-222.79198	511.21616	-429.63965	-322.13397	514.74554	-410.93951	-138.35532	912.54968	-559.4906	-491.03046	1016.9275	-489.53036	-377.69998	839.31244	-110.35104	-480.61826	893.10571	-136.25745	-516.36304	488.3974	94.624657	-609.73096	522.32483	73.04731
273	1.355	-318.05966	85.429138	-534.8974	-373.23215	100.67097	-538.97858	-224.25601	510.19324	-430.58731	-323.22198	514.19159	-412.34207	-137.99313	911.02216	-558.86285	-491.70682	1013.9879	-492.03635	-381.32385	827.20258	-113.27981	-482.67703	882.14551	-139.0858	-526.37195	466.47894	73.799911	-617.00641	502.47128	49.493851
274	1.36	-319.67102	84.28405	-535.67834	-375.09241	99.182892	-539.57104	-225.58061	509.2699	-431.57706	-324.86185	513.71191	-414.15018	-137.86787	909.47565	-557.92694	-492.36481	1011.3359	-494.60959	-385.01651	814.78986	-116.81905	-485.95026	871.07458	-141.59401	-530.29108	446.27316	47.663563	-622.92316	482.47134	25.198725
